<svg version="1.1" id="Layer_1" xmlns="http://www.w3.org/2000/svg" xmlns:xlink="http://www.w3.org/1999/xlink" x="0px" y="0px"
	 width="100%" viewBox="0 0 576 304" enable-background="new 0 0 576 304" xml:space="preserve">
<path fill="#000000" opacity="1.000000" stroke="none" 
	d="
M233.402405,129.402405 
	C224.161560,138.765060 215.169571,147.876602 206.556366,156.604324 
	C203.799652,156.295410 202.911789,154.729111 201.778671,153.595230 
	C183.408875,135.213120 165.103073,116.766876 146.688431,98.429916 
	C144.500992,96.251701 143.547333,94.002792 143.604721,90.940681 
	C143.754074,82.973145 143.654938,75.000946 143.654938,67.030609 
	C144.089874,66.751152 144.524796,66.471695 144.959732,66.192238 
	C164.970001,86.166252 184.980286,106.140266 205.521622,126.644379 
	C225.723694,106.306374 245.687973,86.207741 265.647614,66.113792 
	C267.935883,68.048912 267.315247,69.832413 267.316681,71.376785 
	C267.352051,108.694283 267.254852,146.012238 267.435730,183.328873 
	C267.459381,188.208344 265.938324,189.531265 261.188049,189.475082 
	C245.768219,189.292694 245.770340,189.467041 245.768753,173.962433 
	C245.767029,157.136246 245.756393,140.310043 245.749802,123.483856 
	C245.749161,121.866821 245.749710,120.249779 245.749710,117.273430 
	C241.110703,121.827843 237.380981,125.489555 233.402405,129.402405 
M253.197113,85.697884 
	C237.126480,101.364899 221.055847,117.031914 204.241287,133.424179 
	C186.301865,115.306847 167.859741,96.681824 149.417618,78.056801 
	C149.004898,78.217857 148.592194,78.378914 148.179474,78.539970 
	C149.464066,83.965790 145.813660,90.000725 150.638229,94.926605 
	C167.769470,112.417610 185.059784,129.752930 202.171387,147.263016 
	C204.847122,150.001068 206.502625,149.666290 209.042221,147.079956 
	C221.412430,134.482025 233.943237,122.041290 246.481094,109.609344 
	C247.646042,108.454239 248.477142,106.387596 251.252914,107.109306 
	C251.252914,108.884628 251.252853,110.692368 251.252914,112.500099 
	C251.253571,134.821655 251.240265,157.143234 251.282425,179.464722 
	C251.285675,181.186447 250.616898,183.229462 252.735046,184.374237 
	C257.621887,187.015411 262.646973,183.994629 262.648346,178.384216 
	C262.656281,146.234482 262.659332,114.084755 262.624542,81.935066 
	C262.623016,80.512558 263.112183,78.978195 261.447632,76.621262 
	C258.753601,79.603622 256.226013,82.401703 253.197113,85.697884 
z"/>
<path fill="#000000" opacity="1.000000" stroke="none" 
	d="
M474.910461,156.089798 
	C485.677917,166.868668 496.194489,177.398453 506.711060,187.928253 
	C506.507385,188.327637 506.303711,188.727020 506.100006,189.126404 
	C496.879669,189.126404 487.657806,189.203140 478.440948,189.023102 
	C477.365723,189.002090 476.199524,187.681503 475.275360,186.762390 
	C455.913361,167.506485 436.579010,148.222778 417.251129,128.932587 
	C416.911774,128.593857 416.719147,128.108093 415.172089,126.343292 
	C417.881470,124.208755 420.825562,122.311554 423.262451,119.901527 
	C440.192444,103.158127 457.056549,86.347420 473.834839,69.452080 
	C476.475250,66.793266 479.163025,65.431183 483.026154,65.574829 
	C490.648224,65.858238 498.288269,65.658386 505.937012,65.658386 
	C506.321167,68.634720 504.168854,69.547470 502.877502,70.847466 
	C485.509369,88.331566 468.161224,105.837486 450.591370,123.117599 
	C447.161163,126.491219 447.088074,128.558533 450.590332,131.874176 
	C458.809723,139.655655 466.659943,147.827118 474.910461,156.089798 
M451.271088,139.228668 
	C447.325623,135.501053 443.380157,131.773438 439.269073,127.889381 
	C458.500427,108.523018 476.888733,90.005646 495.758636,71.003250 
	C485.747192,69.070000 478.704468,70.583054 472.257507,77.812416 
	C461.867035,89.463875 450.169098,99.941994 439.177124,111.067604 
	C433.848724,116.460770 428.030884,121.428291 423.302551,127.671661 
	C424.455322,128.912537 425.313904,129.897308 426.235199,130.819397 
	C442.117035,146.714569 458.439331,162.201492 473.690887,178.679565 
	C480.196686,185.708542 487.062683,184.919815 496.080872,184.247696 
	C480.775848,168.867950 466.275299,154.296631 451.271088,139.228668 
z"/>
<path fill="#000000" opacity="1.000000" stroke="none" 
	d="
M370.853088,148.352768 
	C358.493378,150.825943 351.622925,145.855255 347.778809,134.510010 
	C345.366699,127.391113 341.189362,120.870331 337.309967,113.090492 
	C332.314148,123.021439 327.832245,131.883438 323.392761,140.766678 
	C316.248810,155.061615 308.982025,169.298538 302.096008,183.717026 
	C299.998260,188.109467 297.354401,189.870590 292.483063,189.457977 
	C287.231293,189.013168 281.912720,189.357391 275.185883,189.357391 
	C296.025146,147.582947 316.308594,106.922737 337.242767,64.958008 
	C351.386780,93.265564 364.855377,120.221390 378.318481,147.166214 
	C375.630463,148.895905 373.418579,148.135056 370.853088,148.352768 
M310.362579,129.761627 
	C301.475983,147.755081 292.589355,165.748550 283.631500,183.886322 
	C294.314178,186.181396 295.587433,185.651794 299.888641,177.060318 
	C311.443085,153.980896 322.945923,130.875610 334.520355,107.806213 
	C335.267151,106.317757 335.408142,104.177292 338.097137,103.764122 
	C343.517303,114.586647 348.971130,125.422409 354.374573,136.283218 
	C358.438904,144.452377 360.806763,145.478378 370.620972,142.669342 
	C359.638458,120.638939 348.711945,98.720909 337.256531,75.741959 
	C328.017120,94.310646 319.361847,111.705368 310.362579,129.761627 
z"/>
<path fill="#000000" opacity="1.000000" stroke="none" 
	d="
M88.838257,118.005539 
	C97.195984,119.959602 105.463150,120.040123 113.294128,122.436890 
	C118.310524,123.972229 119.641045,126.391266 118.798378,131.386703 
	C117.608498,138.440598 116.467812,145.502914 115.333847,152.566086 
	C114.237930,159.392242 110.861496,161.749390 104.106316,160.195007 
	C100.578758,159.383301 97.091270,158.430496 93.310951,158.562241 
	C93.310951,161.896881 93.335976,164.992386 93.306343,168.087372 
	C93.210457,178.100647 86.814720,186.512268 77.289040,189.184998 
	C67.088982,192.046936 57.025322,188.396362 51.593098,179.799072 
	C48.460609,174.841446 46.551281,169.311981 44.357510,163.919113 
	C43.535625,161.898712 43.503704,159.701218 45.173145,158.344208 
	C48.659168,155.510590 47.485355,152.563843 45.950783,149.458694 
	C43.405819,144.309052 42.429325,139.124313 45.065079,133.636871 
	C47.241581,129.105545 50.810749,126.285789 55.501930,125.000725 
	C58.120899,124.283302 59.421494,123.036453 59.785069,120.303772 
	C60.344681,116.097618 63.104633,114.207191 67.208153,114.741524 
	C74.296883,115.664558 81.354866,116.823715 88.838257,118.005539 
M90.543007,165.000519 
	C89.449608,159.208603 86.580132,154.079361 84.396385,148.699722 
	C83.203606,145.761337 81.120483,144.849701 77.972267,146.278259 
	C69.491158,150.126755 60.887493,153.705750 52.415916,157.574448 
	C46.536819,160.259277 46.420097,160.897446 48.983570,167.092026 
	C50.001217,169.551147 50.919704,172.055771 52.037834,174.468063 
	C56.545845,184.193741 65.759697,188.854630 75.766739,186.542587 
	C84.046295,184.629669 90.583313,175.516235 90.543007,165.000519 
M83.497742,142.855392 
	C85.142456,143.545547 86.367172,144.798172 86.719131,146.453522 
	C88.244598,153.628265 93.289459,155.713623 99.823418,156.012955 
	C101.792854,156.103165 103.784103,156.595016 105.681267,157.177002 
	C108.461937,158.030029 110.378731,156.963730 111.348053,154.547424 
	C113.030151,150.354294 113.519234,145.866333 113.743561,141.384003 
	C113.863800,138.981537 112.110825,138.558228 110.115021,138.225082 
	C99.143898,136.393768 88.192863,134.442337 77.230835,132.555984 
	C76.103905,132.362076 74.916260,132.124542 73.948212,133.091019 
	C73.447784,134.132523 74.001411,135.059326 74.365860,135.947388 
	C75.545006,138.820602 76.069069,141.754959 72.558853,143.100647 
	C69.128197,144.415802 67.961647,141.471375 66.843597,139.021683 
	C65.732498,136.587234 64.741585,134.080002 61.378250,133.919067 
	C59.981300,135.165024 59.865627,136.978119 59.758057,138.513107 
	C59.523697,141.857315 57.004807,145.824921 60.075802,148.445038 
	C63.354805,151.242645 66.488815,147.399384 69.661049,146.512466 
	C74.046562,145.286331 77.707573,141.615860 83.497742,142.855392 
M74.354546,125.306900 
	C70.681351,125.268158 67.199364,123.230064 62.579739,124.027344 
	C66.475975,126.467842 69.510094,128.403030 73.474785,129.006836 
	C84.111961,130.626801 94.680809,132.693512 105.282097,134.552567 
	C107.723602,134.980713 110.180878,135.333145 112.641861,135.629395 
	C113.704834,135.757339 114.675224,135.338608 114.947197,134.196625 
	C115.239426,132.969620 114.401543,132.384903 113.363533,132.092728 
	C112.251122,131.779602 111.130547,131.468826 109.993500,131.273956 
	C98.404045,129.287567 86.810501,127.325073 74.354546,125.306900 
M103.153030,127.164078 
	C107.124664,127.401413 111.009911,129.227386 115.270584,128.198624 
	C114.443413,124.763870 111.643524,124.947937 109.620102,124.577087 
	C96.108299,122.100601 82.559456,119.824760 69.013672,117.536835 
	C67.067780,117.208160 64.976433,116.919594 63.795979,120.051506 
	C76.569084,123.261154 89.563080,124.459091 103.153030,127.164078 
M50.301140,151.643097 
	C50.785519,152.199539 50.990269,153.201340 52.276070,152.726868 
	C51.662479,148.810074 48.892292,145.550812 48.720181,141.514542 
	C48.531620,137.092468 49.562626,133.210632 53.800144,130.962280 
	C62.962582,126.100838 66.879913,132.879395 71.208206,139.885284 
	C70.734596,133.073502 66.865776,128.998840 60.970730,128.150879 
	C54.869881,127.273315 49.468140,130.495819 47.402798,135.888443 
	C45.237240,141.542740 47.733158,146.256638 50.301140,151.643097 
M52.438900,144.113892 
	C53.822262,146.649719 54.202244,149.808197 57.088955,151.563934 
	C52.898621,145.938339 58.513542,139.754028 56.021420,133.653442 
	C52.106144,136.240723 50.460865,139.165298 52.438900,144.113892 
z"/>
<path fill="#000000" opacity="1.000000" stroke="none" 
	d="
M169.756989,213.897949 
	C172.878082,213.825577 173.192413,216.083817 173.955673,217.852463 
	C175.921982,222.408813 177.832184,226.989410 180.306519,232.841537 
	C182.759048,227.049118 184.683533,222.414658 186.686935,217.814575 
	C187.526947,215.885803 188.085388,213.364822 191.040939,213.959686 
	C194.171890,214.589890 193.225006,217.298889 193.270004,219.271088 
	C193.391495,224.596970 193.335083,229.928314 193.263901,235.256348 
	C193.242355,236.869064 193.389450,238.957397 190.923203,238.823730 
	C188.948898,238.716751 188.856613,236.944336 188.837341,235.421112 
	C188.797577,232.276428 188.825363,229.130890 188.017151,225.750443 
	C186.585709,228.989059 185.185074,232.241821 183.709885,235.460388 
	C182.966370,237.082550 182.473541,239.103317 180.085587,238.997635 
	C177.957825,238.903473 177.610229,236.998718 176.957306,235.536240 
	C175.426605,232.107635 173.998245,228.633347 171.879150,225.334076 
	C171.879150,228.913300 171.961731,232.495407 171.836319,236.070221 
	C171.789658,237.400513 171.273651,238.812805 169.516861,238.766953 
	C168.298004,238.735123 167.801605,237.727173 167.803101,236.687561 
	C167.813354,229.536514 167.866089,222.385101 168.004379,215.235733 
	C168.012848,214.798553 168.868271,214.377762 169.756989,213.897949 
z"/>
<path fill="#000000" opacity="1.000000" stroke="none" 
	d="
M396.941467,189.224609 
	C391.049072,189.314514 385.546875,189.173660 380.059235,189.394760 
	C376.821259,189.525223 374.830048,188.540207 373.457581,185.455017 
	C371.050903,180.045074 368.248779,174.811066 365.274933,168.824158 
	C373.277039,167.449936 380.354950,168.003098 387.415283,168.319672 
	C387.987610,168.345337 388.785004,168.815613 389.054108,169.309952 
	C392.384033,175.427124 396.001709,181.410095 398.206085,188.070572 
	C398.284454,188.307297 397.643463,188.782120 396.941467,189.224609 
M390.714050,183.043945 
	C385.729004,172.061584 384.531769,171.404907 374.164825,173.966782 
	C376.252777,184.232361 381.382446,187.231827 390.714050,183.043945 
z"/>
<path fill="#000000" opacity="1.000000" stroke="none" 
	d="
M358.924438,216.486359 
	C360.995453,212.199890 363.053467,213.460388 364.799225,216.167496 
	C367.589142,220.493683 370.186890,224.943817 373.810822,229.267273 
	C373.810822,225.387314 373.773499,221.506821 373.828339,217.627640 
	C373.851837,215.968842 373.803894,213.970566 376.251099,214.115997 
	C378.305817,214.238113 378.262268,216.043900 378.273163,217.532516 
	C378.315887,223.365402 378.315277,229.198730 378.297058,235.031799 
	C378.291840,236.707718 378.347076,238.541092 376.131104,238.951981 
	C374.120422,239.324768 373.099884,237.896973 372.232056,236.435791 
	C369.518524,231.867065 366.846497,227.273697 363.270203,222.770615 
	C363.270203,226.986252 363.303467,231.202301 363.252319,235.417328 
	C363.234222,236.909409 363.214600,238.712769 361.116821,238.697220 
	C359.111176,238.682404 358.885193,236.964218 358.876312,235.428696 
	C358.840698,229.262924 358.870300,223.096771 358.924438,216.486359 
z"/>
<path fill="#000000" opacity="1.000000" stroke="none" 
	d="
M229.115723,236.706161 
	C227.233383,240.024734 225.146942,239.635117 224.943832,236.566727 
	C224.493805,229.768021 224.800201,222.917618 224.855255,216.088760 
	C224.863861,215.020599 225.498688,214.045029 226.617279,213.981583 
	C231.072601,213.728897 235.645386,212.754852 239.884750,214.859146 
	C243.365677,216.586975 245.335434,223.045776 242.418457,226.227936 
	C238.970703,229.989136 240.703400,232.638641 242.278030,235.877426 
	C242.615784,236.572189 242.620132,237.429062 242.761917,238.131226 
	C240.817169,239.710220 239.473633,238.982513 238.393433,237.435364 
	C237.827744,236.625137 237.450073,235.678497 237.026672,234.775116 
	C235.881500,232.331741 234.867859,229.552048 231.352737,230.409271 
	C227.959183,231.236847 229.783813,234.270187 229.115723,236.706161 
M239.254364,222.995636 
	C239.824036,217.285461 235.664841,218.152969 232.330856,218.154236 
	C228.779602,218.155579 229.099976,220.921371 229.382782,223.156021 
	C229.818832,226.601349 234.963074,226.837799 239.254364,222.995636 
z"/>
<path fill="#000000" opacity="1.000000" stroke="none" 
	d="
M330.596558,222.845551 
	C333.126404,235.613480 323.279327,239.810562 314.245239,239.134003 
	C312.221436,238.982437 311.254608,237.870758 311.251251,235.894547 
	C311.240814,229.744415 311.271545,223.594147 311.240875,217.444153 
	C311.227570,214.772156 312.329193,213.744385 315.137299,213.641983 
	C323.730255,213.328644 327.956940,215.618057 330.596558,222.845551 
M320.833832,234.582245 
	C326.175354,232.142517 328.057220,228.190598 326.313049,223.075851 
	C324.886505,218.892410 321.312042,217.369354 315.353088,218.740509 
	C315.353088,222.550262 315.520874,226.496750 315.303986,230.421982 
	C315.102905,234.061508 316.711761,235.219666 320.833832,234.582245 
z"/>
<path fill="#000000" opacity="1.000000" stroke="none" 
	d="
M344.375732,223.683960 
	C347.209198,224.184891 351.556305,222.401596 351.569244,225.621674 
	C351.585114,229.559555 347.157684,227.506485 344.671356,227.833832 
	C342.497528,228.120026 340.351898,227.566681 340.291992,230.981094 
	C340.233429,234.319977 342.020660,234.864365 344.677185,234.839584 
	C346.671265,234.820969 348.674347,234.856903 350.658691,235.033798 
	C351.888794,235.143433 352.943634,235.782898 352.848755,237.249985 
	C352.772827,238.424164 351.864899,239.032806 350.815704,239.049988 
	C346.825806,239.115356 342.827179,239.210220 338.845734,239.013138 
	C336.471924,238.895630 336.105347,236.839600 336.087952,234.947937 
	C336.035919,229.289093 336.067596,223.629196 336.102783,217.969940 
	C336.119720,215.240616 337.192230,213.572281 340.279846,213.695099 
	C343.603882,213.827316 346.936859,213.718277 350.264465,213.786865 
	C351.457428,213.811447 352.704132,214.077759 352.738983,215.629059 
	C352.772095,217.106018 351.608063,217.644974 350.422516,217.753189 
	C348.440399,217.934143 346.436035,217.854584 344.444946,217.958984 
	C342.747772,218.047958 340.585846,217.274673 340.371490,220.222702 
	C340.175812,222.913956 341.497711,223.832947 344.375732,223.683960 
z"/>
<path fill="#000000" opacity="1.000000" stroke="none" 
	d="
M198.378769,237.812256 
	C200.761780,230.591888 203.251480,223.718369 205.792038,216.863693 
	C206.310486,215.464874 206.892761,214.028000 208.759918,213.901749 
	C210.681061,213.771851 211.387756,215.159286 211.935623,216.552261 
	C214.431580,222.898453 216.870026,229.267471 219.291641,235.642517 
	C219.700546,236.719025 220.180237,238.013901 218.820007,238.738205 
	C217.344849,239.523666 216.442398,238.557129 215.512115,237.431702 
	C211.640762,232.748322 206.436356,232.866577 202.227875,237.707733 
	C201.059769,239.051453 199.945480,239.628525 198.378769,237.812256 
M206.538773,226.573227 
	C205.612762,232.496536 209.321320,228.815231 211.725388,229.361420 
	C211.246170,226.072906 210.327927,223.615997 208.843231,220.526169 
	C207.972977,222.868454 207.399399,224.412231 206.538773,226.573227 
z"/>
<path fill="#000000" opacity="1.000000" stroke="none" 
	d="
M149.619736,218.419250 
	C147.433487,221.318558 149.119873,222.621048 151.343445,223.508560 
	C153.647232,224.428116 156.156342,224.885971 158.368622,225.968750 
	C161.138428,227.324387 162.508011,229.799744 162.137695,232.946991 
	C161.767609,236.092285 159.867996,238.259384 156.866043,238.891403 
	C152.762787,239.755310 148.538345,240.095108 145.120972,236.823700 
	C144.003693,235.754120 143.203430,234.186890 144.283051,232.801666 
	C145.558640,231.164993 146.893433,232.264954 148.088181,233.290695 
	C148.835617,233.932419 149.600250,234.662186 150.490906,235.008896 
	C153.251160,236.083466 156.178665,235.842178 157.316605,232.980667 
	C158.480759,230.053253 155.740921,229.098633 153.446121,228.348953 
	C151.555481,227.731323 149.547607,227.323380 147.816086,226.401199 
	C144.915680,224.856461 143.406540,222.296066 144.190079,218.946152 
	C144.952927,215.684677 147.086273,213.755951 150.568298,213.698029 
	C153.864700,213.643188 157.340530,213.091217 159.822617,216.099243 
	C160.760986,217.236465 161.945877,218.604340 160.567154,220.034042 
	C159.378448,221.266693 158.129410,220.400314 157.101135,219.429718 
	C154.968460,217.416626 152.632736,216.604721 149.619736,218.419250 
z"/>
<path fill="#000000" opacity="1.000000" stroke="none" 
	d="
M291.319855,239.222885 
	C289.205933,239.090134 287.173676,239.180862 287.208801,236.860352 
	C287.238892,234.871994 289.099457,234.805557 290.593414,234.784637 
	C292.965149,234.751419 293.802856,233.489029 293.776031,231.296005 
	C293.739410,228.301636 293.644775,225.299805 293.804810,222.313477 
	C293.962158,219.377396 292.736328,218.040619 289.833191,217.855286 
	C288.507538,217.770645 287.025757,217.233658 287.219299,215.478653 
	C287.416992,213.685944 289.025970,213.755066 290.324585,213.740952 
	C294.316620,213.697556 298.310150,213.709457 302.301941,213.772278 
	C303.465118,213.790588 304.747833,213.959717 304.916779,215.491531 
	C305.088043,217.044144 303.855743,217.635132 302.719543,217.660294 
	C298.440063,217.755066 298.086761,220.463547 298.284515,223.769913 
	C298.413483,225.925354 298.381592,228.097198 298.297668,230.256866 
	C298.196075,232.872559 298.592072,234.914551 301.922607,234.878326 
	C303.471130,234.861481 305.127594,235.256927 304.866760,237.347244 
	C304.653290,239.058212 303.087555,239.127838 301.756622,239.154831 
	C298.430237,239.222321 295.102203,239.208679 291.319855,239.222885 
z"/>
<path fill="#000000" opacity="1.000000" stroke="none" 
	d="
M408.824463,238.510193 
	C407.203156,235.565598 408.974518,234.892563 410.981415,234.886932 
	C414.236847,234.877792 414.812958,233.037628 414.693604,230.359436 
	C414.597717,228.208023 414.600616,226.045029 414.700897,223.893753 
	C414.849579,220.702805 414.804962,217.809784 410.405884,217.744217 
	C409.276855,217.727386 408.063782,217.160934 408.091919,215.647766 
	C408.121063,214.079498 409.341217,213.812515 410.525421,213.795181 
	C414.669464,213.734482 418.815002,213.723038 422.959290,213.762466 
	C424.355316,213.775726 425.761597,214.153946 425.695343,215.918320 
	C425.640259,217.385162 424.315491,217.822922 423.162872,217.723358 
	C419.552826,217.411530 419.051331,219.485886 419.205536,222.361023 
	C419.329712,224.676270 419.291748,227.004349 419.231598,229.324310 
	C419.154083,232.314743 419.085205,235.164078 423.407166,234.922836 
	C424.620392,234.855133 425.778076,235.506149 425.790436,236.926697 
	C425.805450,238.656769 424.416931,239.139984 423.047821,239.132751 
	C418.421295,239.108276 413.774933,239.675827 408.824463,238.510193 
z"/>
<path fill="#000000" opacity="1.000000" stroke="none" 
	d="
M460.143494,224.943573 
	C458.074249,221.355026 455.346771,218.542389 454.379791,214.717972 
	C456.666443,214.217117 456.666443,214.217117 464.896027,223.320602 
	C469.412872,221.616455 468.828094,213.965240 474.887238,213.871399 
	C476.202606,215.898773 475.049225,217.111343 474.283295,218.305923 
	C470.729462,223.848770 466.014038,228.896729 467.187469,236.334793 
	C467.373169,237.511749 466.743866,238.760590 465.273773,238.764816 
	C463.262634,238.770599 462.893250,237.222672 462.869568,235.640823 
	C462.814758,231.979996 463.096008,228.257141 460.143494,224.943573 
z"/>
<path fill="#000000" opacity="1.000000" stroke="none" 
	d="
M395.324066,227.093460 
	C395.301178,230.388290 395.320251,233.207031 395.236450,236.022690 
	C395.195679,237.392975 394.898315,238.817810 393.106079,238.768631 
	C391.421661,238.722366 390.923065,237.388931 390.896179,235.990738 
	C390.813385,231.683014 390.715820,227.370087 390.842743,223.065643 
	C390.933533,219.987045 390.314056,217.862778 386.637390,217.860321 
	C385.103638,217.859299 383.476318,217.323105 383.739410,215.290894 
	C383.976624,213.458633 385.642517,213.743835 386.907806,213.729996 
	C391.050964,213.684662 395.195648,213.673798 399.338226,213.742844 
	C400.766357,213.766617 402.684021,213.573044 402.723022,215.690277 
	C402.760742,217.736053 400.909210,217.698425 399.445587,217.864029 
	C398.319031,217.991516 397.184906,218.051849 396.044647,218.142822 
	C394.725159,221.009567 395.568909,223.862091 395.324066,227.093460 
z"/>
<path fill="#000000" opacity="1.000000" stroke="none" 
	d="
M256.414093,238.606415 
	C253.963959,233.431412 255.337524,228.237442 255.047379,223.165329 
	C254.875076,220.153183 254.467133,217.930817 250.777817,217.904190 
	C249.481781,217.894852 247.992798,217.498047 248.002457,215.711746 
	C248.012665,213.821396 249.554123,213.774704 250.858902,213.759460 
	C255.339081,213.707138 259.820679,213.718460 264.300995,213.770523 
	C265.465607,213.784058 266.780334,213.960922 266.963959,215.447266 
	C267.183380,217.223755 265.782166,217.913391 264.455902,217.829453 
	C259.167267,217.494720 259.155243,220.837524 259.313263,224.617081 
	C259.465668,228.261871 259.371704,231.919571 259.299927,235.569916 
	C259.267853,237.200455 259.403290,239.120438 256.414093,238.606415 
z"/>
<path fill="#000000" opacity="1.000000" stroke="none" 
	d="
M445.708801,217.880157 
	C442.519135,218.122513 443.062531,220.299805 443.026154,222.024887 
	C442.941895,226.015518 443.083191,230.013611 442.903473,233.998337 
	C442.821411,235.818542 443.386200,238.694427 440.519196,238.615494 
	C437.916107,238.543823 438.743988,235.840088 438.705200,234.193558 
	C438.584320,229.059418 438.660889,223.920639 438.660889,219.066132 
	C436.645233,217.196838 434.421478,218.377213 432.607788,217.572235 
	C431.602753,217.126144 430.873199,216.563751 431.061493,215.365295 
	C431.211121,214.412949 431.927704,213.892166 432.800903,213.885284 
	C437.950439,213.844696 443.100952,213.837921 448.250092,213.903214 
	C449.357544,213.917252 450.203278,214.657578 450.012939,215.848633 
	C449.639038,218.188354 447.671417,217.719070 445.708801,217.880157 
z"/>
<path fill="#000000" opacity="1.000000" stroke="none" 
	d="
M72.192619,174.066925 
	C68.717728,172.770264 67.524193,169.611130 65.436958,167.377167 
	C63.834949,165.662506 64.183945,162.981613 65.696373,160.933899 
	C67.023285,159.137344 68.895088,158.707031 70.994087,159.447845 
	C73.421539,160.304565 75.298454,162.061615 74.649979,164.590561 
	C73.842300,167.740372 77.991714,172.012070 72.192619,174.066925 
M70.063019,167.550034 
	C70.431061,167.845184 70.799110,168.140320 71.167152,168.435471 
	C71.789444,166.526718 72.080078,164.598083 70.548439,163.001709 
	C69.771591,162.192032 68.642220,162.225296 67.987770,163.214355 
	C66.615479,165.288269 68.554749,166.074722 70.063019,167.550034 
z"/>
<path fill="#000000" opacity="1.000000" stroke="none" 
	d="
M107.986771,150.892975 
	C104.141472,153.629333 97.956085,153.663635 94.820961,151.287857 
	C92.022285,149.167038 91.884911,144.700211 94.690987,142.137161 
	C98.580231,138.584778 102.690819,140.924759 106.222626,142.542160 
	C109.382393,143.989182 110.186157,147.224823 107.986771,150.892975 
z"/>
</svg>